<?xml version="1.0" encoding="utf-8"?>
<!-- Generator: Adobe Illustrator 27.8.1, SVG Export Plug-In . SVG Version: 6.00 Build 0)  -->
<svg version="1.1" id="Capa_1" xmlns="http://www.w3.org/2000/svg" xmlns:xlink="http://www.w3.org/1999/xlink" x="0px" y="0px"
	 viewBox="0 0 28 28" style="enable-background:new 0 0 28 28;" xml:space="preserve">
<style type="text/css">
	.st0{fill:#404756;stroke:#404756;stroke-width:0.4375;stroke-miterlimit:3.5;}
</style>
<path class="st0" d="M14.4,11.4c0-2.5,1.1-4.9,3.1-6.5c0.4-0.3,0.3-1-0.3-1.1c-0.8-0.2-1.6-0.3-2.4-0.3C9.1,3.5,4.4,8.2,4.4,14
	s4.7,10.5,10.5,10.5c3.1,0,6.1-1.4,8-3.8c0.4-0.4,0.1-1.1-0.5-1.1C18,19.5,14.4,15.8,14.4,11.4z M14.9,23.2c-5.1,0-9.2-4.1-9.2-9.2
	s4.1-9.2,9.2-9.2c0.3,0,0.5,0,0.8,0c-1.6,1.8-2.6,4.1-2.6,6.5c0,4.7,3.3,8.6,7.7,9.4l0.2,0C19.4,22.3,17.2,23.2,14.9,23.2z"/>
</svg>
