<?xml version="1.0" encoding="utf-8"?>
<!-- Generator: Adobe Illustrator 27.8.1, SVG Export Plug-In . SVG Version: 6.00 Build 0)  -->
<svg version="1.1" id="Capa_1" xmlns="http://www.w3.org/2000/svg" xmlns:xlink="http://www.w3.org/1999/xlink" x="0px" y="0px"
	 viewBox="0 0 20 20" style="enable-background:new 0 0 20 20;" xml:space="preserve">
<style type="text/css">
	.st0{fill:#EAEBEF;}
</style>
<g>
	<path class="st0" d="M10,0C4.5,0,0,4.5,0,10c0,4.4,2.9,8.2,6.8,9.5c0.5,0.1,0.7-0.2,0.7-0.5v-1.9C4.7,17.8,4.1,16,4.1,16
		C3.7,14.8,3,14.5,3,14.5c-0.9-0.6,0.1-0.6,0.1-0.6c1,0.1,1.5,1,1.5,1C5.5,16.5,7,16,7.5,15.8c0.1-0.6,0.3-1.1,0.6-1.3
		c-2.1-0.3-4.5-1.2-4.5-5c0-1.1,0.4-2,1-2.7C4.5,6.5,4.2,5.5,4.7,4.1c0,0,0.8-0.3,2.8,1C8.3,5,9.2,4.8,10,4.8s1.7,0.1,2.5,0.3
		c1.9-1.3,2.7-1,2.7-1c0.5,1.4,0.2,2.4,0.1,2.6c0.6,0.7,1,1.6,1,2.7c0,3.8-2.3,4.7-4.6,4.9c0.4,0.3,0.7,0.9,0.7,1.9V19
		c0,0.3,0.2,0.6,0.7,0.5c4-1.3,6.8-5.1,6.8-9.5C20,4.5,15.5,0,10,0z"/>
</g>
</svg>
