<?xml version="1.0" encoding="utf-8"?>
<!-- Generator: Adobe Illustrator 27.8.1, SVG Export Plug-In . SVG Version: 6.00 Build 0)  -->
<svg version="1.1" id="Capa_1" xmlns="http://www.w3.org/2000/svg" xmlns:xlink="http://www.w3.org/1999/xlink" x="0px" y="0px"
	 viewBox="0 0 32 32" style="enable-background:new 0 0 32 32;" xml:space="preserve">
<style type="text/css">
	.st0{fill:#EAEBEF;stroke:#EAEBEF;stroke-width:0.25;}
	.st1{fill-rule:evenodd;clip-rule:evenodd;fill:#EAEBEF;}
</style>
<path class="st0" d="M24.3,16c0,4.6-3.7,8.3-8.3,8.3S7.7,20.6,7.7,16s3.7-8.3,8.3-8.3S24.3,11.4,24.3,16z M22.4,16
	c0-3.6-2.8-6.4-6.4-6.4S9.6,12.4,9.6,16s2.8,6.4,6.4,6.4S22.4,19.6,22.4,16z M14.7,1.6v2.6c0,0.5,0.4,1,1,1c0.6,0,1-0.4,1-1V1.6
	c0-0.5-0.4-1-1-1C15.1,0.6,14.7,1,14.7,1.6z M7.9,3.9l1.3,2.3c0.3,0.5,0.9,0.6,1.3,0.4c0.5-0.3,0.6-0.9,0.4-1.3L9.6,3
	C9.3,2.5,8.7,2.4,8.3,2.6C7.8,2.9,7.7,3.5,7.9,3.9z M3,9.6l2.3,1.3c0.5,0.3,1,0.1,1.3-0.4s0.1-1-0.4-1.3L3.9,7.9
	c-0.5-0.3-1-0.1-1.3,0.4C2.4,8.8,2.5,9.3,3,9.6z M1.6,17.3h2.6c0.5,0,1-0.4,1-1c0-0.6-0.4-1-1-1H1.6c-0.5,0-1,0.4-1,1
	C0.6,16.9,1,17.3,1.6,17.3z M3.9,24.1l2.3-1.3c0.5-0.3,0.6-0.9,0.4-1.3s-0.9-0.8-1.3-0.4L3,22.4c-0.5,0.3-0.6,0.9-0.4,1.3
	C2.9,24.2,3.5,24.3,3.9,24.1z M9.6,29l1.3-2.3c0.3-0.5,0.1-1-0.4-1.3c-0.5-0.3-1-0.1-1.3,0.4l-1.3,2.3c-0.3,0.5-0.1,1,0.4,1.3
	C8.8,29.6,9.3,29.5,9.6,29z M17.3,30.4v-2.6c0-0.5-0.4-1-1-1c-0.6,0-1,0.4-1,1v2.6c0,0.5,0.4,1,1,1C16.9,31.4,17.3,31,17.3,30.4z
	 M24.1,28.1l-1.3-2.3c-0.3-0.5-0.9-0.6-1.3-0.4c-0.5,0.3-0.6,0.9-0.4,1.3l1.3,2.3c0.3,0.5,0.9,0.6,1.3,0.4
	C24.2,29.1,24.3,28.5,24.1,28.1z M29,22.4l-2.3-1.3c-0.5-0.3-1-0.1-1.3,0.4c-0.3,0.5-0.1,1,0.4,1.3l2.3,1.3c0.5,0.3,1,0.1,1.3-0.4
	C29.6,23.2,29.5,22.7,29,22.4z M30.4,14.7h-2.6c-0.5,0-1,0.4-1,1c0,0.6,0.4,1,1,1h2.6c0.5,0,1-0.4,1-1C31.4,15.1,31,14.7,30.4,14.7z
	 M28.1,7.9l-2.3,1.3c-0.5,0.3-0.6,0.9-0.4,1.3c0.3,0.4,0.9,0.6,1.3,0.4L29,9.6c0.5-0.3,0.6-0.9,0.4-1.3C29.1,7.8,28.5,7.7,28.1,7.9z
	 M22.4,3l-1.3,2.3c-0.3,0.5-0.1,1,0.4,1.3s1,0.1,1.3-0.4l1.3-2.3c0.3-0.5,0.1-1-0.4-1.3C23.2,2.4,22.7,2.5,22.4,3z"/>
<path class="st1" d="M15.5,14.8c0-1,0.4-1.9,0.9-2.6c0.3-0.3,0.1-0.8-0.3-0.8l0,0c-2.4,0-4.5,1.9-4.5,4.4c0,2.6,1.9,4.6,4.5,4.6
	c1,0,1.9-0.4,2.7-0.9c0.3-0.3,0.3-0.8-0.1-0.8C16.8,18.3,15.5,16.8,15.5,14.8"/>
</svg>
